<svg xmlns="http://www.w3.org/2000/svg" xmlns:xlink="http://www.w3.org/1999/xlink" width="267.562" height="125" viewBox="0 0 267.562 125"><defs><style>.a{fill:#fff;stroke:#707070;}.b{clip-path:url(#a);}.c{fill:#6f6f6e;}.d{fill:#95ae23;}.e{fill:#4a4949;}.f{fill:#007b2f;}</style><clipPath id="a"><rect class="a" width="267.562" height="125" transform="translate(788 1557)"/></clipPath></defs><g class="b" transform="translate(-788 -1557)"><g transform="translate(788 1562.567)"><g transform="translate(175.78 12.105)"><path class="c" d="M404.381,117.046a71.716,71.716,0,0,0-8.74-.753s-13.461-.552-21.3,7.936c0,0-9.091,8.237-8.639,20.644a27.538,27.538,0,0,0,7.333,18.785s6.73,7.584,21.1,7.434a96.78,96.78,0,0,0,14.415-2.009s-.2-9.393.05-11.151c0,0-.2-7.183-.05-10.3h-4.571s.6,6.329.5,7.082a127.453,127.453,0,0,0,1.155,13.612,81.819,81.819,0,0,1-8.94,1.105c-.753.05-11.6,1.658-20.342-8.89a30.71,30.71,0,0,1-5.676-16.424s0-10.6,5.826-17.931a22.055,22.055,0,0,1,17.982-7.233s6.278.452,9.392.9Z" transform="translate(-365.69 -115.841)"/><path class="c" d="M497.448,141.844c0,8.639-2.511,15.571-7.584,20.744s-10.9,7.735-17.53,7.735a23.083,23.083,0,0,1-16.776-7.132c-4.822-4.772-7.183-11.151-7.183-19.237,0-8.74,2.511-15.721,7.584-20.844s10.9-7.685,17.53-7.685a23.083,23.083,0,0,1,16.776,7.132c4.772,4.772,7.182,11.2,7.182,19.287m-4.42.9c0-7.986-2.11-14.164-6.279-18.534s-9.041-6.58-14.516-6.58q-7.609,0-13.561,6.931c-3.968,4.621-5.927,10.749-5.927,18.484,0,8.036,2.11,14.214,6.329,18.584s9.041,6.58,14.516,6.58c5.073,0,9.594-2.31,13.511-7.032,3.968-4.721,5.927-10.849,5.927-18.434" transform="translate(-405.666 -115.424)"/></g><g transform="translate(0 5.826)"><path class="d" d="M25.38,136.914s35.611,6.329,17.479,61.077c0,0,49.474-73.182-17.479-61.077" transform="translate(-25.38 -118.882)"/><path class="d" d="M80.559,111.557a8.288,8.288,0,1,1-8.288-8.287,8.3,8.3,0,0,1,8.288,8.287" transform="translate(-44.044 -103.269)"/></g><g transform="translate(37.821 8.991)"><g transform="translate(0.05 65.195)"><path class="e" d="M113.717,248.249a11.039,11.039,0,0,1-2.662,7.283,9.129,9.129,0,0,1-7.283,3.114c-1,0-2.712-.05-5.073-.2.151-3.014.2-6.329.2-10,0-3.415-.05-6.429-.2-9.041h1.607c.4,0,1,0,1.808-.05s1.306-.05,1.557-.05c3.415,0,5.977.854,7.584,2.511a8.868,8.868,0,0,1,2.461,6.429m-2.562.653a7.677,7.677,0,0,0-2.059-5.425c-1.356-1.457-3.516-2.16-6.379-2.16a12.457,12.457,0,0,0-1.657.151c.1,2.26.1,4.571.1,6.982q0,3.918.151,7.986a11.976,11.976,0,0,0,2.26.251q3.842,0,5.726-2.26a8.544,8.544,0,0,0,1.858-5.525" transform="translate(-98.699 -237.4)"/><path class="e" d="M145.82,254.135c0,.4,0,.954-.05,1.708l-10,.151a5.291,5.291,0,0,0,1.658,3.566,5.511,5.511,0,0,0,3.968,1.457,16.068,16.068,0,0,0,4.169-.553l-.251,2.059a11.119,11.119,0,0,1-4.119.552,7.72,7.72,0,0,1-5.776-2.059,7.179,7.179,0,0,1-2.009-5.073,8.652,8.652,0,0,1,1.808-5.475,5.8,5.8,0,0,1,4.872-2.31,5.381,5.381,0,0,1,4.269,1.657,6.51,6.51,0,0,1,1.457,4.32m-2.411,0c0-2.712-1.155-4.119-3.415-4.119-2.31,0-3.717,1.406-4.119,4.269Z" transform="translate(-115.483 -241.678)"/><path class="e" d="M170.583,235.915l-.4,1.909a7,7,0,0,0-1.758-.2,1.769,1.769,0,0,0-1.808,1.055,13.354,13.354,0,0,0-.452,4.37c.954,0,2.311-.05,4.018-.151l-.1,2.16c-1.959-.05-3.265-.1-3.968-.1q0,6.63.151,11.6h-2.612c.151-3.215.2-7.132.2-11.6-.6,0-1.607.05-3.114.1l.1-2.16c1.356.1,2.361.1,3.014.1,0-2.562.352-4.47,1.1-5.626a3.729,3.729,0,0,1,3.415-1.758,16.676,16.676,0,0,1,2.21.3" transform="translate(-128.693 -235.614)"/><path class="e" d="M195.074,254.135c0,.4,0,.954-.05,1.708l-10.046.151a5.291,5.291,0,0,0,1.658,3.566,5.511,5.511,0,0,0,3.968,1.457,16.068,16.068,0,0,0,4.169-.553l-.251,2.059a11.12,11.12,0,0,1-4.119.552,7.72,7.72,0,0,1-5.776-2.059,7.179,7.179,0,0,1-2.009-5.073,8.652,8.652,0,0,1,1.808-5.475,5.862,5.862,0,0,1,4.872-2.31,5.381,5.381,0,0,1,4.269,1.657,6.289,6.289,0,0,1,1.507,4.32m-2.461,0c0-2.712-1.155-4.119-3.415-4.119-2.31,0-3.717,1.406-4.119,4.269Z" transform="translate(-139.271 -241.678)"/><path class="e" d="M225.275,262.814h-2.662c.2-2.562.3-5.324.3-8.388a4.057,4.057,0,0,0-.9-3.064,3.7,3.7,0,0,0-2.612-.8,5.752,5.752,0,0,0-3.817,1.507c0,3.315,0,6.881.05,10.749h-2.662c.151-3.315.251-5.676.251-7.182a32.266,32.266,0,0,0-.653-6.63l2.562-.352.251,1.758h.1a6.782,6.782,0,0,1,4.621-1.959,6,6,0,0,1,3.767,1.055c.9.7,1.306,2.009,1.306,3.817,0,.2,0,.552-.05,1.1,0,.552-.05.9-.05,1.105.151,1.657.151,4.068.2,7.283" transform="translate(-153.751 -241.819)"/><path class="e" d="M253.191,258.991c0,2.813-1.808,4.269-5.425,4.269a17.919,17.919,0,0,1-4.47-.5l.452-2.16a10.931,10.931,0,0,0,4.119.753q3.164,0,3.164-1.808a1.692,1.692,0,0,0-.7-1.406,9.284,9.284,0,0,0-2.361-1.155,13.566,13.566,0,0,1-3.014-1.557,3.423,3.423,0,0,1-1.356-2.712,3.776,3.776,0,0,1,1.256-2.863,5.355,5.355,0,0,1,3.817-1.205,17.089,17.089,0,0,1,4.018.4l-.452,2.11a10.2,10.2,0,0,0-3.667-.6c-1.858,0-2.813.552-2.813,1.607a1.554,1.554,0,0,0,.6,1.306,9.143,9.143,0,0,0,2.461,1.205,11.8,11.8,0,0,1,2.913,1.507,3.432,3.432,0,0,1,1.457,2.813" transform="translate(-168.607 -241.913)"/><path class="e" d="M281.613,255.387a7.655,7.655,0,0,1-2.16,5.826,6.913,6.913,0,0,1-5.023,2.11,6.483,6.483,0,0,1-4.671-1.858,6.855,6.855,0,0,1-1.959-5.224,7.773,7.773,0,0,1,2.16-5.877,7.025,7.025,0,0,1,5.073-2.11,6.483,6.483,0,0,1,4.671,1.858,7.141,7.141,0,0,1,1.909,5.274m-2.511.5a7.537,7.537,0,0,0-1.155-4.068,3.6,3.6,0,0,0-3.265-1.758,3.642,3.642,0,0,0-3.215,1.657,6.77,6.77,0,0,0-1.105,3.918,7.538,7.538,0,0,0,1.155,4.068,3.7,3.7,0,0,0,3.265,1.758A3.643,3.643,0,0,0,278,259.807a7,7,0,0,0,1.105-3.918" transform="translate(-180.455 -241.725)"/><path class="e" d="M309.52,249l-.653,2.311a5.7,5.7,0,0,0-2.11-.452,3.42,3.42,0,0,0-3.566,2.612c0,4.47.05,7.584.1,9.393h-2.562c.151-3.064.251-5.475.251-7.183a31.555,31.555,0,0,0-.7-6.63l2.562-.352a14.612,14.612,0,0,1,.3,2.16h.1a4.412,4.412,0,0,1,3.667-2.311,9.8,9.8,0,0,1,2.612.452" transform="translate(-196.157 -241.866)"/><path class="e" d="M323.954,257.737h-2.662c.151-1.959.2-4.169.2-6.68a40.243,40.243,0,0,0-.5-7.082l2.913-.4c-.1,2.009-.151,4.52-.151,7.484,0,2.361.05,4.571.2,6.68m.6-18.233a1.859,1.859,0,0,1-.5,1.306,1.7,1.7,0,0,1-1.356.552,1.442,1.442,0,0,1-1.155-.452,1.554,1.554,0,0,1-.4-1.155,1.666,1.666,0,0,1,.5-1.256,1.854,1.854,0,0,1,1.356-.552,1.4,1.4,0,0,1,1.1.452,1.558,1.558,0,0,1,.452,1.1" transform="translate(-206.171 -236.742)"/><path class="e" d="M344.507,262.814l-2.31.1a6.326,6.326,0,0,1-.2-1.356h-.151a6.9,6.9,0,0,1-4.872,1.658,4.658,4.658,0,0,1-2.913-1,3.437,3.437,0,0,1-1.206-2.813,4.265,4.265,0,0,1,1.909-3.616c1.256-.9,3.616-1.406,7.032-1.457a4.064,4.064,0,0,0,.05-.8,2.6,2.6,0,0,0-.954-2.411,5.6,5.6,0,0,0-2.913-.6,19.875,19.875,0,0,0-4.52.553l.251-2.009a18.856,18.856,0,0,1,5.023-.6,6.7,6.7,0,0,1,4.018,1.055c.954.7,1.406,1.909,1.406,3.667,0,.452,0,1.306-.05,2.511s-.05,2.009-.05,2.411a30.752,30.752,0,0,0,.452,4.721M341.9,260c-.05-1.457-.05-2.813-.05-3.968a17.3,17.3,0,0,0-4.169.4c-1.607.5-2.411,1.406-2.411,2.763,0,1.306.954,1.959,2.813,1.959A5.432,5.432,0,0,0,341.9,260" transform="translate(-211.906 -241.819)"/><path class="e" d="M389.518,244.084a5.6,5.6,0,0,1-2.511,4.973,12.321,12.321,0,0,1-6.781,1.658,5.764,5.764,0,0,1-.954-.05c0,2.11.1,4.671.251,7.685H376.71c.151-2.762.2-6.078.2-10,0-3.365-.05-6.329-.2-9.041h2.059c.2,0,.854,0,1.909-.05s1.959-.05,2.712-.05a7.156,7.156,0,0,1,4.47,1.256,4.5,4.5,0,0,1,1.657,3.616m-2.461.854q0-3.767-5.123-3.767a19.458,19.458,0,0,0-2.813.2c.05,1.607.1,4.068.1,7.434.351,0,.753.05,1.256.05,4.42,0,6.58-1.306,6.58-3.918" transform="translate(-233.109 -237.353)"/><path class="e" d="M419.354,257.032l-2.26.1a5.184,5.184,0,0,1-.2-1.356h-.151a7.036,7.036,0,0,1-4.721,1.657,4.884,4.884,0,0,1-3.667-1.205c-.753-.8-1.155-2.461-1.155-4.922,0-.352,0-.854.05-1.557,0-.7.05-1.155.05-1.406,0-1.406-.1-3.114-.251-5.023l2.712-.1q-.151,2.788-.151,4.822c0,3.064.2,5.073.6,5.977a2.593,2.593,0,0,0,2.662,1.406,6.422,6.422,0,0,0,3.868-1.155c0-5.425-.05-9.041-.151-10.95l2.612-.1c-.1,1.808-.1,4.37-.1,7.584a52.5,52.5,0,0,0,.251,6.228M417.9,236.489a14.859,14.859,0,0,1-2.009,2.31,12.823,12.823,0,0,0-2.009,2.411h-1.758a15.963,15.963,0,0,1,1.306-2.411,24.579,24.579,0,0,0,1.306-2.31Z" transform="translate(-247.777 -236.037)"/><path class="e" d="M451.137,249.407a8.8,8.8,0,0,1-1.808,5.525,5.963,5.963,0,0,1-4.973,2.361c-1.808,0-3.014-.3-3.667-.954h-.1l-.352.553h-2.16c.151-3.365.2-6.982.2-10.9a81.19,81.19,0,0,0-.5-9.644l2.863-.151c-.1,1.657-.151,4.32-.151,7.936h.1a5.664,5.664,0,0,1,4.52-1.658,5.178,5.178,0,0,1,4.32,2.009,7.438,7.438,0,0,1,1.708,4.922m-2.562.352a6.067,6.067,0,0,0-1.155-3.717,3.728,3.728,0,0,0-3.164-1.507,4.323,4.323,0,0,0-3.767,1.607c0,3.466.1,6.278.251,8.388a4.683,4.683,0,0,0,3.064,1,4.088,4.088,0,0,0,3.566-1.658,7,7,0,0,0,1.205-4.119" transform="translate(-262.633 -235.896)"/><path class="e" d="M472.829,256.891h-2.813c.151-3.215.251-6.831.251-10.9,0-3.918-.151-7.132-.4-9.644l2.964-.151c-.2,2.662-.251,5.927-.251,9.794,0,4.018.1,7.685.251,10.9" transform="translate(-278.147 -235.896)"/><path class="e" d="M485.762,257.737H483.1c.151-1.959.2-4.169.2-6.68a40.242,40.242,0,0,0-.5-7.082l2.913-.4c-.1,2.009-.2,4.52-.2,7.484.05,2.361.1,4.571.251,6.68m.6-18.233a1.86,1.86,0,0,1-.5,1.306,1.7,1.7,0,0,1-1.356.552,1.441,1.441,0,0,1-1.155-.452,1.79,1.79,0,0,1-.4-1.155,1.666,1.666,0,0,1,.5-1.256,1.855,1.855,0,0,1,1.356-.552,1.4,1.4,0,0,1,1.1.452,1.374,1.374,0,0,1,.452,1.1" transform="translate(-284.4 -236.742)"/><path class="e" d="M506.151,260.6,506,262.563a6.443,6.443,0,0,1-3.164.653,7.625,7.625,0,0,1-5.776-2.11,6.936,6.936,0,0,1-2.009-5.023,7.637,7.637,0,0,1,2.109-5.374,7.267,7.267,0,0,1,5.575-2.26,8.726,8.726,0,0,1,2.813.352l-.4,2.311a8.319,8.319,0,0,0-3.114-.553,4.263,4.263,0,0,0-3.315,1.457,5.421,5.421,0,0,0-1.206,3.616,5.556,5.556,0,0,0,1.457,3.918,5.3,5.3,0,0,0,4.119,1.557,10.3,10.3,0,0,0,3.064-.5" transform="translate(-290.324 -241.819)"/><path class="e" d="M532.52,262.814l-2.31.1a6.249,6.249,0,0,1-.151-1.356h-.151a6.9,6.9,0,0,1-4.872,1.658,4.659,4.659,0,0,1-2.913-1,3.437,3.437,0,0,1-1.205-2.813,4.264,4.264,0,0,1,1.909-3.616c1.255-.9,3.616-1.406,7.032-1.457a4.054,4.054,0,0,0,.05-.8,2.605,2.605,0,0,0-.954-2.411,5.6,5.6,0,0,0-2.913-.6,19.875,19.875,0,0,0-4.52.553l.251-2.009a18.855,18.855,0,0,1,5.023-.6,6.6,6.6,0,0,1,4.018,1.055c.954.7,1.406,1.909,1.406,3.667,0,.452,0,1.306-.05,2.511s-.05,2.009-.05,2.411a25.86,25.86,0,0,0,.4,4.721M529.908,260c-.05-1.457-.05-2.813-.05-3.968a17.294,17.294,0,0,0-4.169.4c-1.607.5-2.411,1.406-2.411,2.763,0,1.306.954,1.959,2.813,1.959A5.432,5.432,0,0,0,529.908,260" transform="translate(-302.829 -241.819)"/></g><g transform="translate(32.347 90.51)"><path class="e" d="M170.115,298.636l-1.457.05a5.536,5.536,0,0,1-.1-.9h-.1a4,4,0,0,1-3.114,1.105,3.724,3.724,0,0,1-3.014-1.356,4.988,4.988,0,0,1-1.105-3.315,5.782,5.782,0,0,1,1.256-3.767,4.178,4.178,0,0,1,3.466-1.607,3.259,3.259,0,0,1,2.31.653h.1q0-2.486-.151-4.822l1.909-.05c-.1,1.658-.2,3.868-.2,6.58,0,2.762.1,5.224.2,7.434m-1.557-1.959c0-2.059-.05-4.018-.151-5.927a3.023,3.023,0,0,0-2.009-.653,2.915,2.915,0,0,0-2.511,1.1,4.57,4.57,0,0,0-.854,2.813,4,4,0,0,0,.8,2.562,2.534,2.534,0,0,0,2.16,1.055,4,4,0,0,0,2.562-.954" transform="translate(-161.225 -284.623)"/><path class="e" d="M192.349,297.469a5.349,5.349,0,0,1-1.457,3.968,4.665,4.665,0,0,1-3.415,1.406,4.439,4.439,0,0,1-3.164-1.256,4.593,4.593,0,0,1-1.306-3.566,5.35,5.35,0,0,1,1.457-3.968,4.715,4.715,0,0,1,3.415-1.457,4.439,4.439,0,0,1,3.164,1.256,5.065,5.065,0,0,1,1.306,3.616m-1.708.352a4.7,4.7,0,0,0-.8-2.763,2.464,2.464,0,0,0-2.21-1.205,2.527,2.527,0,0,0-2.21,1.155,5.115,5.115,0,0,0,.05,5.425,2.464,2.464,0,0,0,2.21,1.205,2.527,2.527,0,0,0,2.21-1.155,5.159,5.159,0,0,0,.753-2.662" transform="translate(-171.756 -288.478)"/><path class="e" d="M223.132,298.164l-.05,1.507H215.1q.151-3.089.151-6.781c0-2.311-.05-4.37-.151-6.128h7.484l-.1,1.457c-1.808-.1-3.717-.1-5.776-.1.05,1,.05,2.411.05,4.169,1.758,0,3.315-.05,4.721-.1v1.457c-1.457-.05-3.014-.1-4.721-.1,0,1.708.05,3.265.1,4.772,2.21,0,4.32-.05,6.279-.151" transform="translate(-187.27 -285.657)"/><path class="e" d="M240.255,299.92c0,1.909-1.256,2.913-3.717,2.913a11.931,11.931,0,0,1-3.064-.352l.3-1.457a7.369,7.369,0,0,0,2.813.5c1.457,0,2.16-.4,2.16-1.205a1.088,1.088,0,0,0-.5-.954,6.662,6.662,0,0,0-1.607-.8,7.676,7.676,0,0,1-2.059-1.055,2.357,2.357,0,0,1-.954-1.858,2.7,2.7,0,0,1,.854-1.959,3.62,3.62,0,0,1,2.612-.8,9.611,9.611,0,0,1,2.712.3l-.3,1.406a6.334,6.334,0,0,0-2.461-.4c-1.256,0-1.909.352-1.909,1.105a1.141,1.141,0,0,0,.452.9,6.3,6.3,0,0,0,1.658.8,8.566,8.566,0,0,1,1.959,1,2.29,2.29,0,0,1,1.055,1.909" transform="translate(-196.155 -288.619)"/><path class="e" d="M255.506,298.875l-.1,1.306a3.978,3.978,0,0,1-1.457.3,2.712,2.712,0,0,1-2.411-.9,5.775,5.775,0,0,1-.653-3.265v-3.968c-.352,0-.9,0-1.658.05l.05-1.457c.6.05,1.205.05,1.658.05,0-.4.05-1.356.1-2.813l1.557-.151c-.1,1.406-.151,2.361-.151,2.963.653,0,1.607-.05,2.863-.1l-.05,1.457c-1.205-.05-2.16-.05-2.863-.05v3.365a5.447,5.447,0,0,0,.452,2.712,1.741,1.741,0,0,0,1.607.653,2.327,2.327,0,0,0,1.055-.151" transform="translate(-203.771 -286.268)"/><path class="e" d="M272.038,302.726l-1.557.05a2.938,2.938,0,0,1-.1-.9h-.1a4.644,4.644,0,0,1-3.315,1.105,2.978,2.978,0,0,1-1.959-.653,2.332,2.332,0,0,1-.8-1.909,2.864,2.864,0,0,1,1.306-2.461c.854-.6,2.461-.954,4.772-.954,0-.151.05-.352.05-.553,0-.8-.2-1.356-.653-1.607a4.075,4.075,0,0,0-1.959-.4,12.5,12.5,0,0,0-3.064.4l.151-1.356a11.807,11.807,0,0,1,3.415-.4,4.7,4.7,0,0,1,2.712.7,2.88,2.88,0,0,1,.954,2.461c0,.3,0,.854-.05,1.708-.05.8-.05,1.356-.05,1.607a20.212,20.212,0,0,0,.251,3.164m-1.758-1.959c-.05-1-.05-1.909-.05-2.712a9.685,9.685,0,0,0-2.813.3c-1.1.352-1.607.954-1.607,1.909,0,.9.653,1.356,1.909,1.356a3.752,3.752,0,0,0,2.562-.854" transform="translate(-211.011 -288.713)"/><path class="e" d="M292.443,298.636l-1.457.05a5.532,5.532,0,0,1-.1-.9h-.1a4,4,0,0,1-3.114,1.105,3.725,3.725,0,0,1-3.014-1.356,4.989,4.989,0,0,1-1.1-3.315,5.781,5.781,0,0,1,1.256-3.767,4.178,4.178,0,0,1,3.466-1.607,3.259,3.259,0,0,1,2.31.653h.1q0-2.486-.151-4.822l1.858-.05c-.1,1.658-.2,3.868-.2,6.58.05,2.762.151,5.224.251,7.434m-1.557-1.959c0-2.059-.05-4.018-.151-5.927a3.023,3.023,0,0,0-2.009-.653,2.915,2.915,0,0,0-2.511,1.1,4.57,4.57,0,0,0-.854,2.813,4,4,0,0,0,.8,2.562,2.534,2.534,0,0,0,2.16,1.055,4,4,0,0,0,2.562-.954" transform="translate(-220.367 -284.623)"/><path class="e" d="M314.678,297.469a5.349,5.349,0,0,1-1.457,3.968,4.665,4.665,0,0,1-3.415,1.406,4.439,4.439,0,0,1-3.164-1.256,4.593,4.593,0,0,1-1.306-3.566,5.349,5.349,0,0,1,1.457-3.968,4.715,4.715,0,0,1,3.415-1.457,4.439,4.439,0,0,1,3.164,1.256,5.066,5.066,0,0,1,1.306,3.616m-1.708.352a4.7,4.7,0,0,0-.8-2.763,2.464,2.464,0,0,0-2.21-1.205,2.527,2.527,0,0,0-2.21,1.155,4.724,4.724,0,0,0-.754,2.662,5.062,5.062,0,0,0,.754,2.762,2.464,2.464,0,0,0,2.21,1.205,2.527,2.527,0,0,0,2.21-1.155,4.4,4.4,0,0,0,.8-2.662" transform="translate(-230.898 -288.478)"/><path class="e" d="M344.564,298.636l-1.457.05a5.532,5.532,0,0,1-.1-.9h-.1a4,4,0,0,1-3.114,1.105,3.724,3.724,0,0,1-3.014-1.356,4.988,4.988,0,0,1-1.1-3.315,5.782,5.782,0,0,1,1.255-3.767,4.178,4.178,0,0,1,3.466-1.607,3.259,3.259,0,0,1,2.31.653h.1q0-2.486-.151-4.822l1.909-.05c-.151,1.658-.2,3.868-.2,6.58,0,2.762.05,5.224.2,7.434m-1.607-1.959c0-2.059-.05-4.018-.151-5.927a3.023,3.023,0,0,0-2.009-.653,2.915,2.915,0,0,0-2.511,1.1,4.57,4.57,0,0,0-.854,2.813,4,4,0,0,0,.8,2.562,2.534,2.534,0,0,0,2.16,1.055,3.784,3.784,0,0,0,2.562-.954" transform="translate(-245.566 -284.623)"/><path class="e" d="M365.75,296.712a10.567,10.567,0,0,1-.05,1.155l-6.831.1a3.607,3.607,0,0,0,1.105,2.411,3.812,3.812,0,0,0,2.712.954,10.035,10.035,0,0,0,2.813-.352l-.151,1.406a7.948,7.948,0,0,1-2.813.4,5.129,5.129,0,0,1-3.918-1.406,4.739,4.739,0,0,1-1.356-3.415,5.646,5.646,0,0,1,1.256-3.717,3.918,3.918,0,0,1,3.315-1.557,3.547,3.547,0,0,1,2.913,1.155,4.054,4.054,0,0,1,1,2.863m-1.657,0c0-1.858-.753-2.762-2.311-2.762s-2.511.954-2.813,2.913Z" transform="translate(-256.003 -288.525)"/><path class="e" d="M396.291,299.228a10.606,10.606,0,0,1-3.265.553,6.771,6.771,0,0,1-5.224-1.859,6.5,6.5,0,0,1-1.758-4.571,6.881,6.881,0,0,1,1.909-4.822,7.035,7.035,0,0,1,5.324-2.059,8.561,8.561,0,0,1,2.31.3l-.251,1.658a12.673,12.673,0,0,0-2.662-.4,4.654,4.654,0,0,0-3.667,1.457,5.2,5.2,0,0,0-1.256,3.616,5.448,5.448,0,0,0,1.457,3.767,5.163,5.163,0,0,0,4.119,1.607,10.836,10.836,0,0,0,1.457-.151,17.2,17.2,0,0,1-.151-2.411,17.088,17.088,0,0,0-.151-2.26h1.808c-.05.854-.1,1.808-.1,2.762.05.4.05,1.356.1,2.813" transform="translate(-269.919 -285.516)"/><path class="e" d="M419.794,297.469a5.349,5.349,0,0,1-1.457,3.968,4.665,4.665,0,0,1-3.416,1.406,4.44,4.44,0,0,1-3.164-1.256,4.593,4.593,0,0,1-1.306-3.566,5.35,5.35,0,0,1,1.457-3.968,4.715,4.715,0,0,1,3.416-1.457,4.439,4.439,0,0,1,3.164,1.256,5.065,5.065,0,0,1,1.306,3.616m-1.708.352a5.063,5.063,0,0,0-.753-2.763,2.464,2.464,0,0,0-2.21-1.205,2.527,2.527,0,0,0-2.21,1.155,5.115,5.115,0,0,0,.05,5.425,2.464,2.464,0,0,0,2.21,1.205,2.588,2.588,0,0,0,2.21-1.155,5.661,5.661,0,0,0,.7-2.662" transform="translate(-281.719 -288.478)"/><path class="e" d="M434.535,299.154h-1.808q.151-1.959.151-4.521a26.329,26.329,0,0,0-.352-4.822l1.959-.251c-.1,1.406-.1,3.064-.1,5.073q0,2.336.151,4.521m.4-12.406a1.035,1.035,0,0,1-.352.854,1.075,1.075,0,0,1-.9.352,1.06,1.06,0,0,1-.8-.3,1.022,1.022,0,0,1-.3-.753,1.1,1.1,0,0,1,.352-.854,1.251,1.251,0,0,1,.954-.352.947.947,0,0,1,.753.3,1.021,1.021,0,0,1,.3.753" transform="translate(-292.391 -285.14)"/><path class="e" d="M448.529,298.683l-1.557.05a2.931,2.931,0,0,1-.1-.9h-.1a4.643,4.643,0,0,1-3.315,1.1,2.978,2.978,0,0,1-1.959-.653,2.332,2.332,0,0,1-.8-1.909A2.986,2.986,0,0,1,442,293.912c.854-.6,2.461-.954,4.771-.954,0-.151.05-.352.05-.553,0-.8-.2-1.356-.653-1.607a4.076,4.076,0,0,0-1.959-.4,12.506,12.506,0,0,0-3.064.4l.151-1.356a11.812,11.812,0,0,1,3.416-.4,4.705,4.705,0,0,1,2.712.7,2.88,2.88,0,0,1,.954,2.461c0,.3,0,.854-.05,1.708-.05.8-.05,1.356-.05,1.607a20.251,20.251,0,0,0,.251,3.164m-1.758-1.959c-.05-1-.05-1.909-.05-2.712a9.682,9.682,0,0,0-2.813.3c-1.1.351-1.607.954-1.607,1.909,0,.9.653,1.356,1.909,1.356a3.751,3.751,0,0,0,2.562-.854m1.155-12a10.862,10.862,0,0,1-1.356,1.607,8.494,8.494,0,0,0-1.356,1.607h-1.206a8.754,8.754,0,0,1,.9-1.607c.6-1,.9-1.507.9-1.557h2.11Z" transform="translate(-296.34 -284.67)"/><path class="e" d="M466.631,299.92c0,1.909-1.205,2.913-3.717,2.913a11.931,11.931,0,0,1-3.064-.352l.3-1.457a7.369,7.369,0,0,0,2.813.5c1.457,0,2.16-.4,2.16-1.205a1.088,1.088,0,0,0-.5-.954,6.665,6.665,0,0,0-1.607-.8,7.675,7.675,0,0,1-2.059-1.055,2.356,2.356,0,0,1-.954-1.858,2.7,2.7,0,0,1,.854-1.959,3.54,3.54,0,0,1,2.612-.8,9.611,9.611,0,0,1,2.712.3l-.3,1.406a6.334,6.334,0,0,0-2.461-.4c-1.256,0-1.909.352-1.909,1.105a1.14,1.14,0,0,0,.452.9,6.292,6.292,0,0,0,1.657.8,8.567,8.567,0,0,1,1.959,1,2.421,2.421,0,0,1,1.055,1.909" transform="translate(-305.601 -288.619)"/></g><path class="e" d="M243.574,125.719c0,7.484-2.712,12.959-8.137,16.525s-12.1,5.274-19.991,5.274c-1.457,0-2.612-.05-3.265-.1,0,5.877.4,13.712.7,23.306H199.926q.6-13.561.6-31.945,0-16.876-.6-29.082h7.986c1.155,0,3.315-.05,6.53-.151s5.977-.151,8.338-.151a26.158,26.158,0,0,1,14.767,4.018c4.018,2.763,6.027,6.831,6.027,12.306m-11.854,2.562c0-6.68-4.37-10.6-13.059-10.6a41.4,41.4,0,0,0-7.233.7c.352,5.927.753,12.858.753,20.342h0c.753.05,1.758.1,2.762.1,11.151,0,16.776-3.315,16.776-10.548" transform="translate(-147.589 -109.396)"/><path class="e" d="M330.608,171.153H289.874q.6-14.164.6-31.945c0-11.4-.2-21.1-.6-29.132h40.734v11.653H302.983c.3,4.37.151,8.488.151,14.365,6.68,0,.1,0,23.1-.05v8.74c-17.328-.05-16.274,0-23.1,0,0,6.329-.452,9.141-.151,14.717h27.625v11.653" transform="translate(-191.076 -109.725)"/><path class="e" d="M98.6,167.191c8.237-15.621,18.233-41.136.1-48.068v-.6a7.943,7.943,0,0,0,1.909.2,9.683,9.683,0,0,0,9.593-8.639h.05c.452,0,.552-.05,1.055-.05,2.612-.1,4.721-.151,5.525-.151,10.95,0,18.936,2.763,23.858,8.338a29.168,29.168,0,0,1,7.434,19.991,34.4,34.4,0,0,1-8.288,22.954q-8.288,9.794-23.255,9.794c-4.37,0-10.4-.151-17.931-.5v-3.265Zm11.653-6.379a31.68,31.68,0,0,0,6.128.6c6.53,0,11.351-2.059,14.516-6.178a23.983,23.983,0,0,0,4.721-15.068A22.464,22.464,0,0,0,130.5,125.2c-3.415-4.068-8.589-6.078-15.621-6.078a31.224,31.224,0,0,0-4.671.352c.3,6.178.452,12.607.452,19.338v1.205c.352,2.963-.352,20.794-.4,20.794" transform="translate(-98.602 -109.631)"/></g><g transform="translate(11.603 0)"><path class="f" d="M92.994,108.263a7.736,7.736,0,0,0,2.16.3,8.288,8.288,0,1,0-7.735-11.3v.05a9.626,9.626,0,0,1,5.776,8.84,14.987,14.987,0,0,1-.2,2.11Z" transform="translate(-66.977 -91.989)"/><path class="f" d="M73.057,126.467c25.968,10.548-7.735,60.474-7.735,60.474a93.1,93.1,0,0,0,5.123-25.315v-.1c4.269-13.863,3.968-27.726-12.205-30.739l-.05-.05a27.021,27.021,0,0,0-10.347-4.922c2.662-.5,5.123-.8,7.383-1.055h.05a9.641,9.641,0,0,0,17.781,1.708Z" transform="translate(-47.842 -107.833)"/></g></g></g></svg>